<mxfile host="app.diagrams.net" agent="Mozilla/5.0 (Windows NT 10.0; Win64; x64) AppleWebKit/537.36 (KHTML, like Gecko) Chrome/136.0.0.0 Safari/537.36 Edg/136.0.0.0" version="27.0.5">
  <diagram name="Page-1" id="TpXAAriYojwalOuxlhiy">
    <mxGraphModel dx="2058" dy="1146" grid="1" gridSize="10" guides="1" tooltips="1" connect="1" arrows="1" fold="1" page="1" pageScale="1" pageWidth="1169" pageHeight="827" background="#E8E8E8" math="0" shadow="0">
      <root>
        <mxCell id="0" />
        <mxCell id="1" parent="0" />
        <mxCell id="ZCXp7PUb_-F9p9PLJJs9-19" value="" style="group;movable=1;resizable=1;rotatable=1;deletable=1;editable=1;locked=0;connectable=1;" parent="1" vertex="1" connectable="0">
          <mxGeometry x="647.820895522388" y="378.2539682539683" width="120.14925373134325" height="141.07936507936512" as="geometry" />
        </mxCell>
        <mxCell id="ZCXp7PUb_-F9p9PLJJs9-13" value="" style="pointerEvents=1;shadow=0;dashed=0;html=1;strokeColor=none;fillColor=#4495D1;labelPosition=center;verticalLabelPosition=bottom;verticalAlign=top;align=center;outlineConnect=0;shape=mxgraph.veeam.2d.esx_esxi;movable=1;resizable=1;rotatable=1;deletable=1;editable=1;locked=0;connectable=1;" parent="ZCXp7PUb_-F9p9PLJJs9-19" vertex="1">
          <mxGeometry x="22.999999999999957" width="56.985074626865675" height="88.69841269841274" as="geometry" />
        </mxCell>
        <mxCell id="ZCXp7PUb_-F9p9PLJJs9-18" value="&lt;b&gt;&lt;font style=&quot;color: rgb(255, 255, 255);&quot;&gt;home-pve02&lt;/font&gt;&lt;/b&gt;" style="text;html=1;align=center;verticalAlign=middle;whiteSpace=wrap;rounded=0;movable=1;resizable=1;rotatable=1;deletable=1;editable=1;locked=0;connectable=1;" parent="ZCXp7PUb_-F9p9PLJJs9-19" vertex="1">
          <mxGeometry x="-17.16417910447761" y="88.69841269841274" width="137.3134328358209" height="52.38095238095239" as="geometry" />
        </mxCell>
        <mxCell id="ZCXp7PUb_-F9p9PLJJs9-27" value="" style="group;movable=1;resizable=1;rotatable=1;deletable=1;editable=1;locked=0;connectable=1;" parent="1" vertex="1" connectable="0">
          <mxGeometry x="476.1791044776119" y="50" width="171.6417910447761" height="139.68253968253967" as="geometry" />
        </mxCell>
        <object label="" id="ZCXp7PUb_-F9p9PLJJs9-4">
          <mxCell style="image;sketch=0;aspect=fixed;points=[];align=center;fontSize=12;image=img/lib/mscae/Local_Network_Gateways.svg;container=0;movable=1;resizable=1;rotatable=1;deletable=1;editable=1;locked=0;connectable=1;" parent="ZCXp7PUb_-F9p9PLJJs9-27" vertex="1">
            <mxGeometry x="42.91044776119403" width="74.30459743101619" height="74.30459743101619" as="geometry" />
          </mxCell>
        </object>
        <mxCell id="ZCXp7PUb_-F9p9PLJJs9-25" value="&lt;b&gt;&lt;font style=&quot;color: rgb(255, 255, 255);&quot;&gt;Unifi Router&lt;/font&gt;&lt;/b&gt;" style="text;html=1;align=center;verticalAlign=middle;whiteSpace=wrap;rounded=0;container=0;movable=1;resizable=1;rotatable=1;deletable=1;editable=1;locked=0;connectable=1;" parent="ZCXp7PUb_-F9p9PLJJs9-27" vertex="1">
          <mxGeometry y="-45.396825396825385" width="171.6417910447761" height="52.38095238095238" as="geometry" />
        </mxCell>
        <mxCell id="ZCXp7PUb_-F9p9PLJJs9-30" style="edgeStyle=orthogonalEdgeStyle;rounded=1;orthogonalLoop=1;jettySize=auto;html=1;dashed=1;dashPattern=1 1;strokeWidth=2;jumpSize=6;curved=0;strokeColor=#0066CC;movable=1;resizable=1;rotatable=1;deletable=1;editable=1;locked=0;connectable=1;" parent="1" source="ZCXp7PUb_-F9p9PLJJs9-4" target="ZCXp7PUb_-F9p9PLJJs9-23" edge="1">
          <mxGeometry relative="1" as="geometry">
            <Array as="points">
              <mxPoint x="562.686567164179" y="259.5238095238095" />
              <mxPoint x="430.5223880597014" y="259.5238095238095" />
            </Array>
          </mxGeometry>
        </mxCell>
        <mxCell id="ZCXp7PUb_-F9p9PLJJs9-31" style="edgeStyle=orthogonalEdgeStyle;rounded=1;orthogonalLoop=1;jettySize=auto;html=1;dashed=1;dashPattern=1 1;strokeWidth=2;jumpStyle=arc;flowAnimation=0;jumpSize=6;curved=0;strokeColor=#0066CC;movable=1;resizable=1;rotatable=1;deletable=1;editable=1;locked=0;connectable=1;" parent="1" source="ZCXp7PUb_-F9p9PLJJs9-4" target="ZCXp7PUb_-F9p9PLJJs9-13" edge="1">
          <mxGeometry relative="1" as="geometry">
            <Array as="points">
              <mxPoint x="562.686567164179" y="259.5238095238095" />
              <mxPoint x="699.9999999999999" y="259.5238095238095" />
            </Array>
          </mxGeometry>
        </mxCell>
        <mxCell id="ZCXp7PUb_-F9p9PLJJs9-34" value="" style="group;movable=1;resizable=1;rotatable=1;deletable=1;editable=1;locked=0;connectable=1;" parent="1" vertex="1" connectable="0">
          <mxGeometry x="10" y="678.5714285714287" width="171.6417910447761" height="141.42857142857144" as="geometry" />
        </mxCell>
        <mxCell id="ZCXp7PUb_-F9p9PLJJs9-5" value="" style="image;sketch=0;aspect=fixed;html=1;points=[];align=center;fontSize=12;image=img/lib/mscae/VM_Linux.svg;movable=1;resizable=1;rotatable=1;deletable=1;editable=1;locked=0;connectable=1;" parent="ZCXp7PUb_-F9p9PLJJs9-34" vertex="1">
          <mxGeometry x="42.91044776119403" width="74.3045974310162" height="68.36022963653491" as="geometry" />
        </mxCell>
        <mxCell id="ZCXp7PUb_-F9p9PLJJs9-33" value="&lt;b&gt;&lt;font style=&quot;color: rgb(255, 255, 255);&quot;&gt;tl-docker01&lt;/font&gt;&lt;/b&gt;" style="text;html=1;align=center;verticalAlign=middle;whiteSpace=wrap;rounded=0;movable=1;resizable=1;rotatable=1;deletable=1;editable=1;locked=0;connectable=1;" parent="ZCXp7PUb_-F9p9PLJJs9-34" vertex="1">
          <mxGeometry y="89.04761904761905" width="171.6417910447761" height="52.38095238095239" as="geometry" />
        </mxCell>
        <mxCell id="ZCXp7PUb_-F9p9PLJJs9-35" value="" style="group;movable=1;resizable=1;rotatable=1;deletable=1;editable=1;locked=0;connectable=1;" parent="1" vertex="1" connectable="0">
          <mxGeometry x="181.6417910447761" y="678.5714285714287" width="171.6417910447761" height="141.42857142857144" as="geometry" />
        </mxCell>
        <mxCell id="ZCXp7PUb_-F9p9PLJJs9-36" value="" style="image;sketch=0;aspect=fixed;html=1;points=[];align=center;fontSize=12;image=img/lib/mscae/VM_Linux.svg;movable=1;resizable=1;rotatable=1;deletable=1;editable=1;locked=0;connectable=1;" parent="ZCXp7PUb_-F9p9PLJJs9-35" vertex="1">
          <mxGeometry x="42.91044776119403" width="74.3045974310162" height="68.36022963653491" as="geometry" />
        </mxCell>
        <mxCell id="ZCXp7PUb_-F9p9PLJJs9-37" value="&lt;b&gt;&lt;font style=&quot;color: rgb(255, 255, 255);&quot;&gt;tl-docker02&lt;/font&gt;&lt;/b&gt;" style="text;html=1;align=center;verticalAlign=middle;whiteSpace=wrap;rounded=0;movable=1;resizable=1;rotatable=1;deletable=1;editable=1;locked=0;connectable=1;" parent="ZCXp7PUb_-F9p9PLJJs9-35" vertex="1">
          <mxGeometry y="89.04761904761905" width="171.6417910447761" height="52.38095238095239" as="geometry" />
        </mxCell>
        <mxCell id="ZCXp7PUb_-F9p9PLJJs9-38" value="" style="group;movable=1;resizable=1;rotatable=1;deletable=1;editable=1;locked=0;connectable=1;" parent="1" vertex="1" connectable="0">
          <mxGeometry x="353.2835820895522" y="678.5714285714287" width="171.6417910447761" height="141.42857142857144" as="geometry" />
        </mxCell>
        <mxCell id="ZCXp7PUb_-F9p9PLJJs9-39" value="" style="image;sketch=0;aspect=fixed;html=1;points=[];align=center;fontSize=12;image=img/lib/mscae/VM_Linux.svg;movable=1;resizable=1;rotatable=1;deletable=1;editable=1;locked=0;connectable=1;" parent="ZCXp7PUb_-F9p9PLJJs9-38" vertex="1">
          <mxGeometry x="42.91044776119403" width="74.3045974310162" height="68.36022963653491" as="geometry" />
        </mxCell>
        <mxCell id="ZCXp7PUb_-F9p9PLJJs9-40" value="&lt;b&gt;&lt;font style=&quot;color: rgb(255, 255, 255);&quot;&gt;tl-docker03&lt;/font&gt;&lt;/b&gt;" style="text;html=1;align=center;verticalAlign=middle;whiteSpace=wrap;rounded=0;movable=1;resizable=1;rotatable=1;deletable=1;editable=1;locked=0;connectable=1;" parent="ZCXp7PUb_-F9p9PLJJs9-38" vertex="1">
          <mxGeometry y="89.04761904761905" width="171.6417910447761" height="52.38095238095239" as="geometry" />
        </mxCell>
        <mxCell id="ZCXp7PUb_-F9p9PLJJs9-41" value="" style="group;movable=1;resizable=1;rotatable=1;deletable=1;editable=1;locked=0;connectable=1;fontStyle=1" parent="1" vertex="1" connectable="0">
          <mxGeometry x="507.7611940298507" y="678.5714285714287" width="171.6417910447761" height="141.42857142857144" as="geometry" />
        </mxCell>
        <mxCell id="ZCXp7PUb_-F9p9PLJJs9-42" value="" style="image;sketch=0;aspect=fixed;html=1;points=[];align=center;fontSize=12;image=img/lib/mscae/VM_Linux.svg;movable=1;resizable=1;rotatable=1;deletable=1;editable=1;locked=0;connectable=1;" parent="ZCXp7PUb_-F9p9PLJJs9-41" vertex="1">
          <mxGeometry x="42.91044776119403" width="74.3045974310162" height="68.36022963653491" as="geometry" />
        </mxCell>
        <mxCell id="ZCXp7PUb_-F9p9PLJJs9-43" value="&lt;b&gt;&lt;font style=&quot;color: rgb(255, 255, 255);&quot;&gt;tl-docker04&lt;/font&gt;&lt;/b&gt;" style="text;html=1;align=center;verticalAlign=middle;whiteSpace=wrap;rounded=0;movable=1;resizable=1;rotatable=1;deletable=1;editable=1;locked=0;connectable=1;" parent="ZCXp7PUb_-F9p9PLJJs9-41" vertex="1">
          <mxGeometry y="89.04761904761905" width="171.6417910447761" height="52.38095238095239" as="geometry" />
        </mxCell>
        <mxCell id="ZCXp7PUb_-F9p9PLJJs9-44" value="" style="group;movable=1;resizable=1;rotatable=1;deletable=1;editable=1;locked=0;connectable=1;" parent="1" vertex="1" connectable="0">
          <mxGeometry x="662.2388059701492" y="678.5714285714287" width="171.6417910447761" height="141.42857142857144" as="geometry" />
        </mxCell>
        <mxCell id="ZCXp7PUb_-F9p9PLJJs9-45" value="" style="image;sketch=0;aspect=fixed;html=1;points=[];align=center;fontSize=12;image=img/lib/mscae/VM_Linux.svg;movable=1;resizable=1;rotatable=1;deletable=1;editable=1;locked=0;connectable=1;" parent="ZCXp7PUb_-F9p9PLJJs9-44" vertex="1">
          <mxGeometry x="42.91044776119403" width="74.3045974310162" height="68.36022963653491" as="geometry" />
        </mxCell>
        <mxCell id="ZCXp7PUb_-F9p9PLJJs9-46" value="&lt;b&gt;&lt;font style=&quot;color: rgb(255, 255, 255);&quot;&gt;tl-docker05&lt;/font&gt;&lt;/b&gt;" style="text;html=1;align=center;verticalAlign=middle;whiteSpace=wrap;rounded=0;movable=1;resizable=1;rotatable=1;deletable=1;editable=1;locked=0;connectable=1;" parent="ZCXp7PUb_-F9p9PLJJs9-44" vertex="1">
          <mxGeometry y="89.04761904761905" width="171.6417910447761" height="52.38095238095239" as="geometry" />
        </mxCell>
        <mxCell id="ZCXp7PUb_-F9p9PLJJs9-47" value="" style="group;movable=1;resizable=1;rotatable=1;deletable=1;editable=1;locked=0;connectable=1;" parent="1" vertex="1" connectable="0">
          <mxGeometry x="816.7164179104476" y="678.5714285714287" width="171.6417910447761" height="141.42857142857144" as="geometry" />
        </mxCell>
        <mxCell id="ZCXp7PUb_-F9p9PLJJs9-48" value="" style="image;sketch=0;aspect=fixed;html=1;points=[];align=center;fontSize=12;image=img/lib/mscae/VM_Linux.svg;movable=1;resizable=1;rotatable=1;deletable=1;editable=1;locked=0;connectable=1;" parent="ZCXp7PUb_-F9p9PLJJs9-47" vertex="1">
          <mxGeometry x="42.91044776119403" width="74.3045974310162" height="68.36022963653491" as="geometry" />
        </mxCell>
        <mxCell id="ZCXp7PUb_-F9p9PLJJs9-49" value="&lt;b&gt;&lt;font style=&quot;color: rgb(255, 255, 255);&quot;&gt;tl-docker06&lt;/font&gt;&lt;/b&gt;" style="text;html=1;align=center;verticalAlign=middle;whiteSpace=wrap;rounded=0;movable=1;resizable=1;rotatable=1;deletable=1;editable=1;locked=0;connectable=1;" parent="ZCXp7PUb_-F9p9PLJJs9-47" vertex="1">
          <mxGeometry y="89.04761904761905" width="171.6417910447761" height="52.38095238095239" as="geometry" />
        </mxCell>
        <mxCell id="ZCXp7PUb_-F9p9PLJJs9-50" value="" style="group;movable=1;resizable=1;rotatable=1;deletable=1;editable=1;locked=0;connectable=1;" parent="1" vertex="1" connectable="0">
          <mxGeometry x="988.3582089552239" y="678.5714285714287" width="171.6417910447761" height="141.42857142857144" as="geometry" />
        </mxCell>
        <mxCell id="ZCXp7PUb_-F9p9PLJJs9-51" value="" style="image;sketch=0;aspect=fixed;html=1;points=[];align=center;fontSize=12;image=img/lib/mscae/VM_Linux.svg;movable=1;resizable=1;rotatable=1;deletable=1;editable=1;locked=0;connectable=1;" parent="ZCXp7PUb_-F9p9PLJJs9-50" vertex="1">
          <mxGeometry x="42.91044776119403" width="74.3045974310162" height="68.36022963653491" as="geometry" />
        </mxCell>
        <mxCell id="ZCXp7PUb_-F9p9PLJJs9-52" value="&lt;b&gt;&lt;font style=&quot;color: rgb(255, 255, 255);&quot;&gt;tl-mysql01&lt;/font&gt;&lt;/b&gt;" style="text;html=1;align=center;verticalAlign=middle;whiteSpace=wrap;rounded=0;movable=1;resizable=1;rotatable=1;deletable=1;editable=1;locked=0;connectable=1;" parent="ZCXp7PUb_-F9p9PLJJs9-50" vertex="1">
          <mxGeometry y="89.04761904761905" width="171.6417910447761" height="52.38095238095239" as="geometry" />
        </mxCell>
        <mxCell id="ZCXp7PUb_-F9p9PLJJs9-57" value="11" style="group;movable=1;resizable=1;rotatable=1;deletable=1;editable=1;locked=0;connectable=1;" parent="1" vertex="1" connectable="0">
          <mxGeometry x="904.2537313432834" y="137.3015873015873" width="171.6417910447761" height="87.30158730158729" as="geometry" />
        </mxCell>
        <mxCell id="ZCXp7PUb_-F9p9PLJJs9-55" value="" style="shadow=0;dashed=0;html=1;strokeColor=none;fillColor=#4495D1;labelPosition=center;verticalLabelPosition=bottom;verticalAlign=top;align=center;outlineConnect=0;shape=mxgraph.veeam.2d.physical_storage;movable=1;resizable=1;rotatable=1;deletable=1;editable=1;locked=0;connectable=1;" parent="ZCXp7PUb_-F9p9PLJJs9-57" vertex="1">
          <mxGeometry x="35.01492537313429" width="101.61194029850746" height="34.92063492063492" as="geometry" />
        </mxCell>
        <mxCell id="ZCXp7PUb_-F9p9PLJJs9-56" value="TL-NAS01" style="text;html=1;align=center;verticalAlign=middle;whiteSpace=wrap;rounded=0;movable=1;resizable=1;rotatable=1;deletable=1;editable=1;locked=0;connectable=1;fontStyle=1;fontColor=#FFFFFF;" parent="ZCXp7PUb_-F9p9PLJJs9-57" vertex="1">
          <mxGeometry y="34.92063492063492" width="171.6417910447761" height="52.38095238095238" as="geometry" />
        </mxCell>
        <mxCell id="ZCXp7PUb_-F9p9PLJJs9-58" value="" style="group;movable=1;resizable=1;rotatable=1;deletable=1;editable=1;locked=0;connectable=1;" parent="1" vertex="1" connectable="0">
          <mxGeometry x="904.2537313432834" y="285.71428571428567" width="171.6417910447761" height="87.30158730158729" as="geometry" />
        </mxCell>
        <mxCell id="ZCXp7PUb_-F9p9PLJJs9-59" value="" style="shadow=0;dashed=0;html=1;strokeColor=none;fillColor=#4495D1;labelPosition=center;verticalLabelPosition=bottom;verticalAlign=top;align=center;outlineConnect=0;shape=mxgraph.veeam.2d.physical_storage;movable=1;resizable=1;rotatable=1;deletable=1;editable=1;locked=0;connectable=1;" parent="ZCXp7PUb_-F9p9PLJJs9-58" vertex="1">
          <mxGeometry x="35.01492537313429" width="101.61194029850746" height="34.92063492063492" as="geometry" />
        </mxCell>
        <mxCell id="ZCXp7PUb_-F9p9PLJJs9-60" value="&lt;b&gt;&lt;font style=&quot;color: rgb(255, 255, 255);&quot;&gt;TL-NAS02&lt;/font&gt;&lt;/b&gt;" style="text;html=1;align=center;verticalAlign=middle;whiteSpace=wrap;rounded=0;movable=1;resizable=1;rotatable=1;deletable=1;editable=1;locked=0;connectable=1;" parent="ZCXp7PUb_-F9p9PLJJs9-58" vertex="1">
          <mxGeometry y="34.92063492063492" width="171.6417910447761" height="52.38095238095238" as="geometry" />
        </mxCell>
        <mxCell id="ZCXp7PUb_-F9p9PLJJs9-61" value="" style="group;movable=1;resizable=1;rotatable=1;deletable=1;editable=1;locked=0;connectable=1;" parent="1" vertex="1" connectable="0">
          <mxGeometry x="904.2537313432834" y="407.9365079365079" width="171.6417910447761" height="87.30158730158729" as="geometry" />
        </mxCell>
        <mxCell id="ZCXp7PUb_-F9p9PLJJs9-62" value="" style="shadow=0;dashed=0;html=1;strokeColor=none;fillColor=#4495D1;labelPosition=center;verticalLabelPosition=bottom;verticalAlign=top;align=center;outlineConnect=0;shape=mxgraph.veeam.2d.physical_storage;movable=1;resizable=1;rotatable=1;deletable=1;editable=1;locked=0;connectable=1;" parent="ZCXp7PUb_-F9p9PLJJs9-61" vertex="1">
          <mxGeometry x="35.01492537313429" width="101.61194029850746" height="34.92063492063492" as="geometry" />
        </mxCell>
        <mxCell id="ZCXp7PUb_-F9p9PLJJs9-63" value="&lt;font style=&quot;color: rgb(255, 255, 255);&quot;&gt;&lt;b&gt;TL-M1S01&lt;/b&gt;&lt;/font&gt;" style="text;html=1;align=center;verticalAlign=middle;whiteSpace=wrap;rounded=0;movable=1;resizable=1;rotatable=1;deletable=1;editable=1;locked=0;connectable=1;" parent="ZCXp7PUb_-F9p9PLJJs9-61" vertex="1">
          <mxGeometry y="34.92063492063492" width="171.6417910447761" height="52.38095238095238" as="geometry" />
        </mxCell>
        <mxCell id="ZCXp7PUb_-F9p9PLJJs9-70" style="edgeStyle=orthogonalEdgeStyle;rounded=1;orthogonalLoop=1;jettySize=auto;html=1;curved=0;dashed=1;dashPattern=1 1;strokeWidth=2;strokeColor=#FF8000;movable=1;resizable=1;rotatable=1;deletable=1;editable=1;locked=0;connectable=1;" parent="1" source="ZCXp7PUb_-F9p9PLJJs9-4" target="ZCXp7PUb_-F9p9PLJJs9-55" edge="1">
          <mxGeometry relative="1" as="geometry">
            <Array as="points">
              <mxPoint x="816.7164179104476" y="93.65079365079364" />
              <mxPoint x="816.7164179104476" y="154.76190476190476" />
            </Array>
          </mxGeometry>
        </mxCell>
        <mxCell id="ZCXp7PUb_-F9p9PLJJs9-71" style="edgeStyle=orthogonalEdgeStyle;rounded=1;orthogonalLoop=1;jettySize=auto;html=1;dashed=1;dashPattern=1 1;curved=0;strokeWidth=2;strokeColor=#FF8000;movable=1;resizable=1;rotatable=1;deletable=1;editable=1;locked=0;connectable=1;" parent="1" source="ZCXp7PUb_-F9p9PLJJs9-4" target="ZCXp7PUb_-F9p9PLJJs9-59" edge="1">
          <mxGeometry relative="1" as="geometry">
            <Array as="points">
              <mxPoint x="816.7164179104476" y="93.65079365079364" />
              <mxPoint x="816.7164179104476" y="303.1746031746032" />
            </Array>
          </mxGeometry>
        </mxCell>
        <mxCell id="ZCXp7PUb_-F9p9PLJJs9-72" style="edgeStyle=orthogonalEdgeStyle;rounded=1;orthogonalLoop=1;jettySize=auto;html=1;dashed=1;dashPattern=1 1;curved=0;startArrow=none;startFill=0;strokeWidth=2;strokeColor=#FF8000;movable=1;resizable=1;rotatable=1;deletable=1;editable=1;locked=0;connectable=1;" parent="1" source="ZCXp7PUb_-F9p9PLJJs9-4" target="ZCXp7PUb_-F9p9PLJJs9-62" edge="1">
          <mxGeometry relative="1" as="geometry">
            <Array as="points">
              <mxPoint x="816.7164179104476" y="93.65079365079364" />
              <mxPoint x="816.7164179104476" y="425.3968253968253" />
            </Array>
          </mxGeometry>
        </mxCell>
        <mxCell id="ZCXp7PUb_-F9p9PLJJs9-74" style="edgeStyle=orthogonalEdgeStyle;rounded=0;orthogonalLoop=1;jettySize=auto;html=1;exitX=0.5;exitY=0;exitDx=0;exitDy=0;dashed=1;dashPattern=1 1;strokeWidth=2;strokeColor=#A680B8;movable=1;resizable=1;rotatable=1;deletable=1;editable=1;locked=0;connectable=1;curved=1;" parent="1" source="ZCXp7PUb_-F9p9PLJJs9-24" target="ZCXp7PUb_-F9p9PLJJs9-5" edge="1">
          <mxGeometry relative="1" as="geometry">
            <Array as="points">
              <mxPoint x="430.5223880597014" y="573.8095238095239" />
              <mxPoint x="95.82089552238806" y="573.8095238095239" />
            </Array>
          </mxGeometry>
        </mxCell>
        <mxCell id="ZCXp7PUb_-F9p9PLJJs9-22" value="" style="group;movable=1;resizable=1;rotatable=1;deletable=1;editable=1;locked=0;connectable=1;" parent="1" vertex="1" connectable="0">
          <mxGeometry x="379.02985074626866" y="378.2539682539683" width="120.14925373134325" height="141.07936507936512" as="geometry" />
        </mxCell>
        <mxCell id="ZCXp7PUb_-F9p9PLJJs9-23" value="" style="pointerEvents=1;shadow=0;dashed=0;html=1;strokeColor=none;fillColor=#4495D1;labelPosition=center;verticalLabelPosition=bottom;verticalAlign=top;align=center;outlineConnect=0;shape=mxgraph.veeam.2d.esx_esxi;movable=1;resizable=1;rotatable=1;deletable=1;editable=1;locked=0;connectable=1;" parent="ZCXp7PUb_-F9p9PLJJs9-22" vertex="1">
          <mxGeometry x="22.999999999999957" width="56.985074626865675" height="88.69841269841274" as="geometry" />
        </mxCell>
        <mxCell id="ZCXp7PUb_-F9p9PLJJs9-24" value="&lt;b&gt;&lt;font style=&quot;color: rgb(255, 255, 255);&quot;&gt;home-pve01&lt;/font&gt;&lt;/b&gt;" style="text;html=1;align=center;verticalAlign=middle;whiteSpace=wrap;rounded=0;movable=1;resizable=1;rotatable=1;deletable=1;editable=1;locked=0;connectable=1;" parent="ZCXp7PUb_-F9p9PLJJs9-22" vertex="1">
          <mxGeometry x="-17.16417910447761" y="88.69841269841274" width="137.3134328358209" height="52.38095238095239" as="geometry" />
        </mxCell>
        <mxCell id="ZCXp7PUb_-F9p9PLJJs9-75" style="edgeStyle=orthogonalEdgeStyle;rounded=0;orthogonalLoop=1;jettySize=auto;html=1;exitX=0.5;exitY=0;exitDx=0;exitDy=0;dashed=1;dashPattern=1 1;strokeWidth=2;strokeColor=#A680B8;movable=1;resizable=1;rotatable=1;deletable=1;editable=1;locked=0;connectable=1;curved=1;" parent="1" source="ZCXp7PUb_-F9p9PLJJs9-24" target="ZCXp7PUb_-F9p9PLJJs9-39" edge="1">
          <mxGeometry relative="1" as="geometry">
            <Array as="points">
              <mxPoint x="430.5223880597014" y="573.8095238095239" />
              <mxPoint x="439.1044776119403" y="573.8095238095239" />
            </Array>
          </mxGeometry>
        </mxCell>
        <mxCell id="ZCXp7PUb_-F9p9PLJJs9-76" style="edgeStyle=orthogonalEdgeStyle;rounded=0;orthogonalLoop=1;jettySize=auto;html=1;exitX=0.5;exitY=0;exitDx=0;exitDy=0;dashed=1;dashPattern=1 1;strokeWidth=2;strokeColor=#A680B8;movable=1;resizable=1;rotatable=1;deletable=1;editable=1;locked=0;connectable=1;curved=1;" parent="1" source="ZCXp7PUb_-F9p9PLJJs9-24" target="ZCXp7PUb_-F9p9PLJJs9-42" edge="1">
          <mxGeometry relative="1" as="geometry">
            <Array as="points">
              <mxPoint x="431" y="574" />
              <mxPoint x="588" y="574" />
            </Array>
          </mxGeometry>
        </mxCell>
        <mxCell id="ZCXp7PUb_-F9p9PLJJs9-77" style="edgeStyle=orthogonalEdgeStyle;rounded=0;orthogonalLoop=1;jettySize=auto;html=1;exitX=0.5;exitY=0;exitDx=0;exitDy=0;dashed=1;dashPattern=1 1;strokeWidth=2;strokeColor=#A680B8;movable=1;resizable=1;rotatable=1;deletable=1;editable=1;locked=0;connectable=1;curved=1;" parent="1" source="ZCXp7PUb_-F9p9PLJJs9-24" target="ZCXp7PUb_-F9p9PLJJs9-48" edge="1">
          <mxGeometry relative="1" as="geometry">
            <Array as="points">
              <mxPoint x="430.5223880597014" y="573.8095238095239" />
              <mxPoint x="902.5373134328358" y="573.8095238095239" />
            </Array>
          </mxGeometry>
        </mxCell>
        <mxCell id="ZCXp7PUb_-F9p9PLJJs9-78" style="edgeStyle=orthogonalEdgeStyle;rounded=0;orthogonalLoop=1;jettySize=auto;html=1;exitX=0.5;exitY=0;exitDx=0;exitDy=0;dashed=1;dashPattern=1 1;strokeWidth=2;strokeColor=#7EA6E0;movable=1;resizable=1;rotatable=1;deletable=1;editable=1;locked=0;connectable=1;curved=1;shadow=1;jumpStyle=none;" parent="1" source="ZCXp7PUb_-F9p9PLJJs9-18" target="ZCXp7PUb_-F9p9PLJJs9-36" edge="1">
          <mxGeometry relative="1" as="geometry">
            <Array as="points">
              <mxPoint x="699.9999999999999" y="573.8095238095239" />
              <mxPoint x="267.46268656716416" y="573.8095238095239" />
            </Array>
          </mxGeometry>
        </mxCell>
        <mxCell id="ZCXp7PUb_-F9p9PLJJs9-79" style="edgeStyle=orthogonalEdgeStyle;rounded=0;orthogonalLoop=1;jettySize=auto;html=1;exitX=0.5;exitY=0;exitDx=0;exitDy=0;dashed=1;dashPattern=1 1;strokeWidth=2;strokeColor=#7EA6E0;movable=1;resizable=1;rotatable=1;deletable=1;editable=1;locked=0;connectable=1;curved=1;shadow=1;" parent="1" source="ZCXp7PUb_-F9p9PLJJs9-18" target="ZCXp7PUb_-F9p9PLJJs9-45" edge="1">
          <mxGeometry relative="1" as="geometry">
            <Array as="points">
              <mxPoint x="699.9999999999999" y="573.8095238095239" />
              <mxPoint x="748.0597014925373" y="573.8095238095239" />
            </Array>
          </mxGeometry>
        </mxCell>
        <mxCell id="ZCXp7PUb_-F9p9PLJJs9-80" style="edgeStyle=orthogonalEdgeStyle;rounded=0;orthogonalLoop=1;jettySize=auto;html=1;dashed=1;dashPattern=1 1;strokeWidth=2;strokeColor=#7EA6E0;movable=1;resizable=1;rotatable=1;deletable=1;editable=1;locked=0;connectable=1;curved=1;exitX=0.5;exitY=0;exitDx=0;exitDy=0;shadow=1;" parent="1" source="ZCXp7PUb_-F9p9PLJJs9-18" target="ZCXp7PUb_-F9p9PLJJs9-51" edge="1">
          <mxGeometry relative="1" as="geometry">
            <Array as="points">
              <mxPoint x="699" y="574" />
              <mxPoint x="1068" y="574" />
            </Array>
            <mxPoint x="707.2200000000001" y="450.0023809523811" as="sourcePoint" />
            <mxPoint x="1060" y="670" as="targetPoint" />
          </mxGeometry>
        </mxCell>
      </root>
    </mxGraphModel>
  </diagram>
</mxfile>
